<svg width="16" height="16" viewBox="0 0 16 16" fill="none" xmlns="http://www.w3.org/2000/svg">
<path d="M8.16294 3.09333C9.69583 3.09333 10.7298 3.74222 11.3194 4.28444L13.6233 2.08C12.2083 0.791111 10.367 0 8.16294 0C4.97017 0 2.21278 1.79555 0.870361 4.40889L3.50984 6.41778C4.17197 4.48889 6.00419 3.09333 8.16294 3.09333Z" fill="#EA4335"/>
<path d="M15.9999 8.1777C15.9999 7.51992 15.9455 7.03992 15.8275 6.54214H8.16309V9.51103H12.662C12.5713 10.2488 12.0815 11.3599 10.993 12.1066L13.569 14.0621C15.111 12.6666 15.9999 10.6133 15.9999 8.1777Z" fill="#4285F4"/>
<path d="M3.5193 9.58218C3.34696 9.0844 3.24719 8.55106 3.24719 7.99995C3.24719 7.44884 3.34696 6.91551 3.51023 6.41773L0.870755 4.40884C0.317463 5.49329 0 6.71107 0 7.99995C0 9.28884 0.317463 10.5066 0.870755 11.5911L3.5193 9.58218Z" fill="#FBBC05"/>
<path d="M8.16363 16C10.3677 16 12.2181 15.2888 13.5696 14.0622L10.9936 12.1066C10.3042 12.5777 9.37906 12.9066 8.16363 12.9066C6.00488 12.9066 4.17267 11.5111 3.5196 9.58218L0.880127 11.5911C2.22254 14.2044 4.97086 16 8.16363 16Z" fill="#34A853"/>
</svg>
